<svg width="52" height="52" viewBox="0 0 52 52" fill="none" xmlns="http://www.w3.org/2000/svg">
<path d="M41.2891 12.2557H39.3256V6.36532C39.3256 5.84458 39.1187 5.34516 38.7505 4.97694C38.3823 4.60872 37.8829 4.40186 37.3621 4.40186H13.8006C12.2383 4.40186 10.7401 5.02245 9.63541 6.12711C8.53075 7.23178 7.91016 8.73002 7.91016 10.2923V41.7077C7.91016 43.2699 8.53075 44.7682 9.63541 45.8728C10.7401 46.9775 12.2383 47.5981 13.8006 47.5981H41.2891C41.8098 47.5981 42.3092 47.3912 42.6775 47.023C43.0457 46.6548 43.2525 46.1554 43.2525 45.6346V14.2192C43.2525 13.6984 43.0457 13.199 42.6775 12.8308C42.3092 12.4626 41.8098 12.2557 41.2891 12.2557ZM35.3987 24.0365H15.764V20.1096H35.3987V24.0365ZM35.3987 12.2557H13.8987C13.4136 12.2646 12.941 12.1021 12.5639 11.7968C12.1868 11.4916 11.9294 11.0631 11.8371 10.5868C11.7944 10.3054 11.8134 10.018 11.8927 9.74469C11.9721 9.47135 12.1099 9.21853 12.2967 9.00374C12.4834 8.78896 12.7147 8.61735 12.9744 8.5008C13.234 8.38426 13.5159 8.32556 13.8006 8.32879H35.3987V12.2557Z" fill="white"/>
</svg>
