<svg width="43" height="43" viewBox="0 0 43 43" fill="none" xmlns="http://www.w3.org/2000/svg">
<path d="M41.6355 34.4002L33.0204 25.7851C35.3675 23.0026 36.651 19.5185 36.651 15.8259C36.651 15.423 36.6355 15.0031 36.6045 14.6157C36.5425 13.8394 35.8423 13.242 35.0886 13.3238C34.3123 13.3858 33.7347 14.0648 33.7966 14.8397C33.8206 15.1553 33.8333 15.4976 33.8333 15.8259C33.8333 19.2367 32.5005 22.4334 30.0829 24.8256C28.2387 26.6431 25.931 27.8462 23.3937 28.3055C22.0496 28.5662 20.4041 28.5831 18.8276 28.2886C16.3156 27.8307 14.0191 26.6205 12.189 24.7904C9.794 22.394 8.4739 19.21 8.4739 15.8259C8.4739 8.83515 14.1629 3.1462 21.1536 3.1462C24.5644 3.1462 27.7667 4.4832 30.1688 6.91207C30.7155 7.46434 31.6087 7.46997 32.161 6.92334C32.7146 6.3767 32.7189 5.4849 32.1722 4.93122C29.2362 1.96276 25.3224 0.328491 21.1536 0.328491C12.6089 0.328491 5.65619 7.28119 5.65619 15.8259C5.65619 19.4903 6.92557 22.9589 9.24877 25.7386L0.433569 34.5538C0.0306364 34.9567 -0.090525 35.5625 0.127847 36.0894C0.34622 36.6149 0.860452 36.9587 1.42963 36.9587H5.65619V41.1853C5.65619 41.7544 5.99995 42.2687 6.52545 42.487C6.70015 42.5589 6.8833 42.5941 7.06505 42.5941C7.43135 42.5941 7.79201 42.4504 8.06111 42.1813L19.0769 31.1655C19.7687 31.2599 20.4618 31.3233 21.1536 31.3233C21.8566 31.3233 22.5216 31.2641 23.1598 31.1796L34.1615 42.1813C34.4306 42.4504 34.7913 42.5941 35.1576 42.5941C35.3393 42.5941 35.5225 42.5589 35.6972 42.487C36.2241 42.2687 36.5665 41.7544 36.5665 41.1853V36.9587H40.793C40.7972 36.9587 40.8029 36.9587 40.8071 36.9587C41.6454 36.9193 42.23 36.3332 42.23 35.5498C42.23 35.0751 41.9948 34.6552 41.6355 34.4002ZM8.4739 37.7843V35.5498C8.4739 34.7722 7.84273 34.141 7.06505 34.141H4.8306L11.2367 27.7349C11.324 27.8068 11.417 27.8702 11.5043 27.9406C11.7213 28.1153 11.9411 28.2858 12.1665 28.4464C12.2961 28.5394 12.4286 28.6267 12.561 28.7155C12.7822 28.8634 13.0048 29.0071 13.233 29.1424C13.3711 29.2255 13.5106 29.3058 13.6514 29.3833C13.8853 29.5129 14.122 29.6355 14.3615 29.7524C14.501 29.82 14.639 29.8891 14.7799 29.9525C15.042 30.0708 15.3083 30.1779 15.5759 30.2807C15.6717 30.3174 15.7633 30.3624 15.8605 30.3977L8.4739 37.7843ZM35.1576 34.141C34.3799 34.141 33.7487 34.7722 33.7487 35.5498V37.7843L26.3804 30.4146C26.4875 30.3765 26.5904 30.3258 26.6974 30.285C26.9496 30.1877 27.2004 30.0891 27.4483 29.9792C27.6019 29.9102 27.7527 29.8355 27.9048 29.7637C28.1331 29.6524 28.3585 29.5383 28.5797 29.4157C28.7304 29.3326 28.8797 29.248 29.0277 29.1607C29.2475 29.0311 29.4616 28.8958 29.6743 28.7549C29.8152 28.662 29.9547 28.5704 30.0914 28.4732C30.314 28.3154 30.5309 28.1491 30.7451 27.9787C30.8352 27.9068 30.931 27.8434 31.0198 27.7702L37.392 34.141H35.1576Z" fill="#4E97CE"/>
<path d="M14.6395 13.4295C14.0732 12.8984 13.1799 12.928 12.6488 13.4957C12.1177 14.0635 12.1473 14.9553 12.715 15.4864L20.2003 22.4898C20.4694 22.7434 20.8159 22.8702 21.1611 22.8702C21.5063 22.8702 21.8528 22.7434 22.1233 22.4898L37.1812 8.40131C37.7489 7.87017 37.7785 6.97836 37.2474 6.4106C36.7148 5.84142 35.823 5.81324 35.2567 6.34438L21.1625 19.5313L14.6395 13.4295Z" fill="#4E97CE"/>
</svg>
