<svg width="23" height="22" viewBox="0 0 23 22" fill="none" xmlns="http://www.w3.org/2000/svg">
<g clip-path="url(#clip0_2061_30159)">
<path fill-rule="evenodd" clip-rule="evenodd" d="M16.2143 13.8286H15.2086L14.8314 13.4514C16.1324 12.0011 16.8491 10.1197 16.8429 8.17143C16.8429 6.55527 16.3636 4.97541 15.4657 3.63163C14.5678 2.28784 13.2916 1.24049 11.7985 0.622016C10.3054 0.00354055 8.66236 -0.158281 7.07726 0.157015C5.49216 0.472312 4.03615 1.25056 2.89336 2.39336C1.75056 3.53615 0.972312 4.99216 0.657015 6.57726C0.341719 8.16236 0.503541 9.80537 1.12202 11.2985C1.74049 12.7916 2.78784 14.0678 4.13163 14.9657C5.47541 15.8636 7.05527 16.3429 8.67143 16.3429C10.6197 16.3491 12.5011 15.6324 13.9514 14.3314L14.3286 14.7086V15.7143L20.6143 22L22.5 20.1143L16.2143 13.8286ZM8.67143 2.51429C9.95504 2.50899 11.2019 2.94233 12.2056 3.74252C13.2093 4.54272 13.9095 5.66176 14.1903 6.91429H11.1354L9.79029 8.92572L7.06229 3.77143L5.41543 6.91429H3.15257C3.43336 5.66176 4.13357 4.54272 5.13725 3.74252C6.14092 2.94233 7.38782 2.50899 8.67143 2.51429ZM8.67143 13.8286C7.27231 13.8429 5.91797 13.3358 4.8722 12.4063C3.82644 11.4767 3.16413 10.1911 3.01429 8.8H6.55943L7.07486 7.81943L9.58914 12.584L12.1034 8.81257H14.3286C14.1786 10.2026 13.5158 11.4867 12.4697 12.4142C11.4236 13.3418 10.0694 13.846 8.67143 13.8286Z" fill="white"/>
</g>
<defs>
<clipPath id="clip0_2061_30159">
<rect width="22" height="22" transform="translate(0.5)"/>
</clipPath>
</defs>
</svg>
