<svg width="52" height="52" viewBox="0 0 52 52" fill="none" xmlns="http://www.w3.org/2000/svg">
<g clip-path="url(#clip0_40000590_17123)">
<path d="M50.9505 39.0814L33.7036 24.1352C33.6469 24.086 33.5914 24.0356 33.5349 23.9863C33.4721 24.0626 33.4053 24.1365 33.3342 24.2079L25.8809 31.6611C26.9312 33.0961 27.6822 34.7028 28.0817 36.3868C28.25 37.0963 28.3571 37.8168 28.4054 38.5385L39.0933 50.9325C39.7817 51.7309 41.0036 51.776 41.749 51.0305L51.0452 41.7343C51.7894 40.9901 51.746 39.7707 50.9505 39.0814Z" fill="white"/>
<path d="M15.6278 23.9341C17.3118 24.3335 18.9186 25.0845 20.3536 26.1349L27.8068 18.6816C27.8778 18.6106 27.9518 18.5436 28.0282 18.4805C27.979 18.4241 27.9287 18.3687 27.8796 18.3121L12.9333 1.06532C12.2441 0.269921 11.0247 0.226397 10.2805 0.970652L0.9843 10.2668C0.238836 11.0123 0.283931 12.2341 1.08235 12.9226L13.4762 23.6102C14.2019 23.6591 14.9226 23.7667 15.6278 23.9341Z" fill="white"/>
<path d="M25.9039 35.6382C25.3631 34.1424 24.4935 32.7489 23.3447 31.5476L32.0089 22.8834C32.0575 22.8347 32.0999 22.7824 32.1385 22.7283C32.4748 22.2561 32.4324 21.5972 32.0089 21.1736L30.8416 20.0063C30.6056 19.7703 30.2962 19.6523 29.9867 19.6523C29.741 19.6523 29.4959 19.728 29.287 19.8769C29.2328 19.9155 29.1804 19.9579 29.1318 20.0065L20.4677 28.6706C19.2664 27.5219 17.8729 26.652 16.3771 26.1114C15.9894 25.9713 15.5952 25.852 15.1953 25.7572C14.3345 25.5529 13.4554 25.4524 12.583 25.4524C10.7596 25.4524 8.96472 25.8916 7.42289 26.7417C5.36023 27.879 3.21118 30.1727 3.94311 32.8935C4.11744 33.5418 4.45421 34.1187 4.94391 34.6084C5.65129 35.3156 6.6559 35.8025 7.77283 35.9793C8.0885 36.0291 8.39897 36.0512 8.70369 36.0512C9.93366 36.0512 11.0691 35.6901 12.0655 35.3346C13.7472 34.7346 15.4313 34.0941 17.0817 33.4585C16.7531 33.9386 16.397 34.4071 16.0247 34.867C15.62 35.3671 15.1966 35.8573 14.7696 36.3415C14.5703 36.5672 14.3704 36.792 14.1712 37.0156L13.9083 37.3112C11.8734 39.6005 9.80025 42.0979 8.76644 45.2341C8.28194 46.704 8.10422 48.2 8.23823 49.6292C8.30678 50.3604 9.01477 50.8565 9.72807 50.6823L10.5007 50.4938C11.0744 50.3538 11.4656 49.8195 11.4193 49.2307C11.3437 48.2695 11.4748 47.2516 11.8092 46.2372C12.3237 44.6764 13.1816 43.2794 14.2009 41.9449C14.6371 41.3741 15.1025 40.8144 15.5836 40.2583C15.8202 39.985 16.0605 39.7124 16.3028 39.4397L16.5639 39.1462C16.7944 38.8875 17.0258 38.6275 17.2565 38.3654C17.0614 38.893 16.869 39.4217 16.6805 39.9498C16.2369 41.1931 15.7847 42.6529 16.036 44.2428C16.2126 45.3597 16.6995 46.3644 17.4069 47.0717C17.8966 47.5614 18.4735 47.8981 19.1216 48.0725C19.4933 48.1724 19.8574 48.2187 20.2112 48.2187C22.4479 48.2187 24.2914 46.3737 25.2733 44.5928C26.5302 42.3133 26.889 39.4804 26.2579 36.8203C26.1633 36.4201 26.0441 36.0259 25.9039 35.6382ZM10.9484 32.2031C10.1979 32.4709 9.4144 32.7258 8.69982 32.7258C8.56103 32.7258 8.4249 32.7162 8.29209 32.6951C7.88224 32.6304 7.50008 32.4625 7.29486 32.2573C7.19687 32.1593 7.16737 32.0804 7.15371 32.0296C6.93669 31.2229 8.11921 30.1544 9.02819 29.6532C10.0788 29.0739 11.3113 28.775 12.5724 28.7749C13.19 28.7749 13.8143 28.8465 14.4278 28.9921C15.2582 29.1892 16.0602 29.5312 16.8051 30.0019C14.883 30.7444 12.9046 31.5052 10.9484 32.2031ZM22.3622 42.9872C21.9018 43.8221 20.9627 44.8876 20.1876 44.8876C20.1188 44.8876 20.0513 44.8792 19.9856 44.8616C19.9348 44.8478 19.856 44.8184 19.758 44.7204C19.5527 44.5151 19.385 44.133 19.3202 43.7234C19.191 42.9063 19.4924 41.9631 19.8122 41.0669C20.5101 39.1107 21.271 37.1324 22.0134 35.2103C22.4842 35.9551 22.8263 36.7572 23.0233 37.5875C23.4661 39.4539 23.2252 41.4219 22.3622 42.9872Z" fill="white"/>
</g>
<defs>
<clipPath id="clip0_40000590_17123">
<rect width="51.1232" height="51.1232" fill="white" transform="translate(0.453125 0.438477)"/>
</clipPath>
</defs>
</svg>
