<svg width="52" height="52" viewBox="0 0 52 52" fill="none" xmlns="http://www.w3.org/2000/svg">
<g clip-path="url(#clip0_40000590_8305)">
<path d="M30.4089 17.4795H10.5276C10.151 17.4795 9.7898 17.3299 9.52348 17.0636C9.25716 16.7973 9.10754 16.4361 9.10754 16.0594V10.3791C9.10754 10.0024 9.25716 9.64124 9.52348 9.37492C9.7898 9.1086 10.151 8.95898 10.5276 8.95898H30.4089C30.7855 8.95898 31.1467 9.1086 31.413 9.37492C31.6793 9.64124 31.829 10.0024 31.829 10.3791V16.0594C31.829 16.4361 31.6793 16.7973 31.413 17.0636C31.1467 17.3299 30.7855 17.4795 30.4089 17.4795ZM11.9477 14.6393H28.9888V11.714H11.9477V14.6393Z" fill="white"/>
<path d="M30.4089 20.4336H10.5276C10.151 20.4336 9.7898 20.5832 9.52348 20.8495C9.25716 21.1158 9.10754 21.4771 9.10754 21.8537V27.4204C9.10754 27.7971 9.25716 28.1583 9.52348 28.4246C9.7898 28.6909 10.151 28.8405 10.5276 28.8405H26.6598L31.829 23.5862V21.8537C31.829 21.4771 31.6793 21.1158 31.413 20.8495C31.1467 20.5832 30.7855 20.4336 30.4089 20.4336ZM28.9888 26.0003H11.9477V23.1602H28.9888V26.0003Z" fill="white"/>
<path d="M16.2936 45.1851V45.0999L16.748 43.126H6.26779V6.1185H34.6696V20.6744L37.5097 17.9904V4.69841C37.5097 4.32178 37.3601 3.96057 37.0938 3.69425C36.8275 3.42794 36.4663 3.27832 36.0896 3.27832H4.8477C4.47107 3.27832 4.10986 3.42794 3.84355 3.69425C3.57723 3.96057 3.42761 4.32178 3.42761 4.69841V44.4609C3.42761 44.8375 3.57723 45.1987 3.84355 45.465C4.10986 45.7314 4.47107 45.881 4.8477 45.881H16.2084C16.2201 45.6473 16.2486 45.4147 16.2936 45.1851Z" fill="white"/>
<path d="M31.8291 27.6616L30.7214 28.7835C30.9962 28.7268 31.2481 28.59 31.4453 28.3904C31.6424 28.1907 31.776 27.9371 31.8291 27.6616Z" fill="white"/>
<path d="M9.10754 38.6954C9.10754 39.072 9.25716 39.4332 9.52348 39.6996C9.7898 39.9659 10.151 40.1155 10.5276 40.1155H17.4009L17.8269 38.2694L18.0115 37.4883V37.4173H11.9477V34.5204H20.9511L23.7913 31.6802H10.5276C10.151 31.6802 9.7898 31.8298 9.52348 32.0961C9.25716 32.3624 9.10754 32.7236 9.10754 33.1003V38.6954Z" fill="white"/>
<path d="M48.1461 24.1114L43.3604 19.3257C43.1481 19.1127 42.8957 18.9437 42.6179 18.8284C42.3401 18.7132 42.0423 18.6538 41.7415 18.6538C41.4408 18.6538 41.1429 18.7132 40.8651 18.8284C40.5873 18.9437 40.335 19.1127 40.1226 19.3257L20.6532 38.9087L19.0485 45.7393C18.9884 46.034 18.9871 46.3376 19.0446 46.6328C19.102 46.9281 19.2171 47.209 19.3834 47.4597C19.5496 47.7103 19.7636 47.9257 20.0132 48.0935C20.2628 48.2613 20.543 48.3782 20.8378 48.4375C20.9842 48.4522 21.1317 48.4522 21.2781 48.4375C21.4521 48.4658 21.6295 48.4658 21.8035 48.4375L28.6909 46.918L48.1461 27.4202C48.3587 27.209 48.5273 26.9579 48.6424 26.6813C48.7575 26.4046 48.8168 26.108 48.8168 25.8084C48.8168 25.5088 48.7575 25.2121 48.6424 24.9355C48.5273 24.6589 48.3587 24.4078 48.1461 24.1966V24.1114ZM27.2424 44.3334L22.0449 45.4837L23.3088 40.3288L37.9073 25.5741L41.9119 29.5787L27.2424 44.3334ZM43.5166 27.974L39.512 23.9694L41.7699 21.7398L45.803 25.7729L43.5166 27.974Z" fill="white"/>
</g>
<defs>
<clipPath id="clip0_40000590_8305">
<rect width="51.1232" height="51.1232" fill="white" transform="translate(0.58728 0.438477)"/>
</clipPath>
</defs>
</svg>

